<?xml version="1.0" encoding="utf-8"?>
<!-- Generator: Adobe Illustrator 27.3.1, SVG Export Plug-In . SVG Version: 6.00 Build 0)  -->
<svg version="1.1" id="Layer_1" xmlns="http://www.w3.org/2000/svg" xmlns:xlink="http://www.w3.org/1999/xlink" x="0px" y="0px"
	 viewBox="0 0 992 296" style="enable-background:new 0 0 992 296;" xml:space="preserve">
<style type="text/css">
	.st0{enable-background:new    ;}
	.st1{fill:#F9B21D;}
	.st2{fill:#226DB4;}
	.st3{fill:#089949;}
	.st4{fill:#E42527;}
</style>
<g>
	<g class="st0">
		<path d="M359,140.8H399c24.2,0,43.1,9.7,43.1,36.2c0,29.1-23,35.4-47.6,35.4h-13.2v43.3H359V140.8z M398.8,196.4
			c13.7,0,21.5-5.7,21.5-19.5c0-14.4-8.5-19.1-21.5-19.1h-17.5v38.7H398.8z"/>
		<path d="M500.9,245.4c-6.4,8.5-15.7,11.8-26.1,11.8c-15.8,0-28.2-8-28.2-24.5c0-23.3,24.6-27,44.2-27h9.9v-1.3
			c0-12-2.8-19.6-16.4-19.6c-8.2,0-15.7,4.2-18.7,12l-15.6-6.7c5.7-14.8,21.3-20.2,36.3-20.2c19.9,0,34.3,9.6,34.3,30.9v54.9h-19.8
			V245.4z M490.6,218.1c-9.3,0-24,1.1-24,13.8c0,8.1,5.9,11.1,13.4,11.1c10.2,0,20.7-5.3,20.7-16.7v-8.2H490.6z"/>
		<path d="M541.8,171.6h20.1v15.8c5.7-11.5,14.8-17,27.6-17V189c-16.2,0-27.6,5.3-27.6,23.3v43.4h-20.1V171.6z"/>
		<path d="M648.4,255.1c-4.3,1.3-8.8,2-13.8,2c-16,0-25.5-8.3-25.5-25v-45.7h-11.3v-14.8h11.3v-17.3l20.1-8.7v26.1h18.5v14.8h-18.5
			v43.9c0,6.6,2.8,10.7,10.2,10.7c2.8,0,6-0.6,9-1.6V255.1z"/>
		<path d="M665.1,171.6h20.1V185c5.4-10.4,16.7-15.1,28.4-15.1c20.2,0,29.3,14.2,29.3,33.3v52.6h-20.4v-50.6
			c0-11.8-5.3-18.7-17.2-18.7c-12.6,0-20.1,7.8-20.1,19.9v49.4h-20.1V171.6z"/>
		<path d="M839.1,237.4c-7,14.8-22.1,19.9-37.5,19.9c-26.5,0-43.2-17.7-43.2-43.9c0-24.6,17-43.6,42.3-43.6
			c27.2,0,40.4,15.9,40.4,48.3h-62.2c0,14.2,8.2,24.6,23.5,24.6c9.1,0,16.6-3.7,21-12.2L839.1,237.4z M821.1,204.9
			c-0.6-12.7-8.3-20.5-20.2-20.5c-12.6,0-20,8.9-21.7,20.5H821.1z"/>
		<path d="M857.2,171.6h20.1v15.8c5.7-11.5,14.8-17,27.6-17V189c-16.2,0-27.6,5.3-27.6,23.3v43.4h-20.1V171.6z"/>
		<path d="M929.3,230.6c3.1,8.2,11.7,12.2,20.8,12.2c6.5,0,14.6-2,14.6-10c0-8.4-9.1-10.4-19.5-12.6c-13.5-2.8-28.6-6.1-28.6-25
			c0-17.3,16.1-25.5,31.3-25.5c13.3,0,28.6,5,34.1,18.3l-14.9,6.4c-3.3-7.5-11.5-10.3-18.4-10.3c-6.7,0-13.1,2.7-13.1,9.5
			c0,7.7,8.2,9.3,18.4,11.3c13.7,2.7,30.1,5.8,30.1,25.4c0,19.8-16.6,26.8-34.1,26.8c-14.8,0-30.8-5-36-20.1L929.3,230.6z"/>
	</g>
	<g>
		<g class="st0">
			<path d="M359.2,104.4l37-53.4h-33.2V40.5h50.6v5.2l-36.1,53.4h35v10.5h-53.3V104.4z"/>
			<path d="M445.2,58c15.4,0,27.2,10.8,27.2,26.3c0,15.9-12.4,26.4-27.7,26.4c-15.4,0-27.8-10.7-27.8-26.1
				C416.9,68.6,430,58,445.2,58z M459.4,84.3c0-9.3-4.7-17.1-14.7-17.1c-10.2,0-14.3,8.1-14.3,17.4c0,9,4.8,16.6,14.6,16.6
				C455.1,101.3,459.4,93.2,459.4,84.3z"/>
			<path d="M481.2,36.1h12.1v31c3.3-6.3,9.9-9.1,16.9-9.1c12.1,0,18.2,8.5,18.2,20v31.7h-12.2V79.2c0-7.3-3.8-11.3-10.8-11.3
				c-7.8,0-12.1,4.8-12.1,12v29.7h-12.1V36.1z"/>
			<path d="M564.6,58c15.4,0,27.2,10.8,27.2,26.3c0,15.9-12.4,26.4-27.7,26.4c-15.4,0-27.8-10.7-27.8-26.1
				C536.2,68.6,549.3,58,564.6,58z M578.7,84.3c0-9.3-4.7-17.1-14.7-17.1c-10.2,0-14.3,8.1-14.3,17.4c0,9,4.8,16.6,14.6,16.6
				C574.5,101.3,578.7,93.2,578.7,84.3z"/>
		</g>
	</g>
</g>
<path class="st1" d="M141.4,284.5c0-4.7,3.8-8.5,8.5-8.5H55.5c-18.7,0-34-15.2-34-34v-94c0,4.7-3.8,8.5-8.5,8.5s-8.5-3.8-8.5-8.5v94
	c0,28.1,22.9,51,51,51h94.4C145.2,293,141.4,289.2,141.4,284.5z"/>
<path class="st2" d="M286.1,156.5c-4.7,0-8.5-3.8-8.5-8.5v94c0,18.7-15.2,34-34,34h-93.7c-4.7,0-8.5,3.8-8.5,8.5s3.8,8.5,8.5,8.5
	h93.7c28.1,0,51-22.9,51-51v-94C294.6,152.7,290.8,156.5,286.1,156.5z"/>
<path class="st3" d="M243.6,3h-93.7c4.7,0,8.5,3.8,8.5,8.5s-3.8,8.5-8.5,8.5h93.7c18.7,0,34,15.2,34,34v94c0,4.7,3.8,8.5,8.5,8.5
	s8.5-3.8,8.5-8.5V54C294.6,25.9,271.7,3,243.6,3z"/>
<path class="st4" d="M13.1,156.5c4.7,0,8.5-3.8,8.5-8.5V54c0-18.7,15.2-34,34-34H150c4.7,0,8.5-3.8,8.5-8.5S154.7,3,150,3H55.5
	c-28.1,0-51,22.9-51,51v94C4.6,152.7,8.4,156.5,13.1,156.5z"/>
<path class="st2" d="M95.5,103.5c15,0,27.1-12.2,27.1-27.1c0-15-12.2-27.1-27.1-27.1s-27.1,12.1-27.1,27
	C68.4,91.3,80.6,103.5,95.5,103.5z M95.5,66.2c5.6,0,10.1,4.6,10.1,10.1c0,5.6-4.6,10.1-10.1,10.1s-10.1-4.6-10.1-10.1
	C85.4,70.7,90,66.2,95.5,66.2z"/>
<path class="st2" d="M95.6,246.8c21.2,0,38.4-17.2,38.4-38.4v-34.3l9.2,3.1c4.1,1.4,8.7,1.4,12.9,0l9.2-3.1v34.3
	c0,21.2,17.2,38.4,38.4,38.4s38.4-17.2,38.4-38.4V170c0-4.7-3.8-8.5-8.5-8.5s-8.5,3.8-8.5,8.5v38.4c0,11.8-9.6,21.4-21.4,21.4
	c-11.8,0-21.4-9.6-21.4-21.4v-40.1l46.4-15.9c8-2.7,13.4-10.3,13.4-18.8V112c0-4.7-3.8-8.5-8.5-8.5H202c-20.3,0-36.8,16.5-36.8,36.8
	v15.8l-14.7,5c-0.6,0.2-1.2,0.2-1.8,0l-14.7-5v-15.8c0-20.3-16.5-36.8-36.8-36.8H65.7c-4.7,0-8.5,3.8-8.5,8.5v21.6
	c0,8.5,5.4,16,13.4,18.8l46.4,15.9v40.1c0,11.8-9.6,21.4-21.4,21.4s-21.4-9.6-21.4-21.4V170c0-4.7-3.8-8.5-8.5-8.5s-8.5,3.8-8.5,8.5
	v38.4C57.2,229.6,74.4,246.8,95.6,246.8z M182.1,140.3c0-10.9,8.9-19.8,19.8-19.8h23v13.1c0,1.2-0.8,2.3-1.9,2.7l-40.9,14V140.3z
	 M76.1,136.3c-1.1-0.4-1.9-1.5-1.9-2.7v-13.1h23c10.9,0,19.8,8.9,19.8,19.8v10L76.1,136.3z"/>
<path class="st2" d="M203.5,103.5c15,0,27.1-12.2,27.1-27.1c0-15-12.2-27.1-27.1-27.1s-27.1,12.2-27.1,27.1S188.6,103.5,203.5,103.5
	z M203.5,66.2c5.6,0,10.1,4.6,10.1,10.1c0,5.6-4.6,10.1-10.1,10.1c-5.6,0-10.1-4.6-10.1-10.1C193.4,70.7,197.9,66.2,203.5,66.2z"/>
</svg>
